<?xml version="1.0" encoding ="UTF-8"?>

<svg 
xmlns="http://www.w3.org/2000/svg" version="1.1"
width="500" height="600" >
<rect x="0" y="0" width="500" height="600" fill="white" style="stroke:black;"/>
<rect x="50" y="20" width="400" height="50" fill="black" style="stroke:red;  stroke-width:5px"/>
<rect x="200" y="50" width="100" height="500" fill="black" style="stroke:red; stroke-width:5px;"/>
<!-- head of lower stick man--><circle cx="340" cy="330" r="20" fill="brown"/>

<line x1="360" y1="350" x2="390" y2="480" style="stroke:#000000; stroke-width:10;"/>
<line x1="370" y1="420" x2="310" y2="380" style="stroke:#000000; stroke-width:10;"/>
<line x1="390" y1="480" x2="360" y2="500" style="stroke:#000000; stroke-width:10;"/>
<line x1="360" y1="500" x2="400" y2="540" style="stroke:#000000; stroke-width:10;"/>
<line x1="390" y1="420" x2="340" y2="380" style="stroke:#000000; stroke-width:10;"/>
<line x1="420" y1="480" x2="390" y2="500" style="stroke:#000000; stroke-width:10;"/>
<line x1="390" y1="500" x2="430" y2="540" style="stroke:#000000; stroke-width:10;"/>
<!-- head of upper stick man2--><circle cx="360" cy="140" r="20" fill="brown"/>
<line x1="365" y1="170" x2="400" y2="300" style="stroke:#000000; stroke-width:10;"/>
<line x1="330" y1="150" x2="320" y2="70" style="stroke:#000000; stroke-width:10;"/>
<line x1="330" y1="150" x2="360" y2="170" style="stroke:#000000; stroke-width:10;"/>
<!-- right arm--><line x1="360" y1="120" x2="350" y2="70" style="stroke:#000000; stroke-width:10;"/>
<line x1="400" y1="300" x2="360" y2="320" style="stroke:#000000; stroke-width:10;"/>
<line x1="330" y1="350" x2="320" y2="360" style="stroke:#000000; stroke-width:10;"/>

</svg>